<svg xmlns="http://www.w3.org/2000/svg" width="862.407" height="471.961" viewBox="0 0 862.407 471.961">
  <g id="Group_1" data-name="Group 1" transform="translate(-2228 -1806.9)">
    <path id="Path_1" data-name="Path 1" d="M2679.844,1809l-111.851,236.111h-86.208L2591.7,1809Z" transform="translate(-143.785 -2.1)" fill="#1d1f2d"/>
    <path id="Path_2" data-name="Path 2" d="M2682.565,2363.506v82.126H2313l109.912-236.111h86.208l-72.931,153.986Z" transform="translate(-85 -166.77)" fill="#1d1f2d"/>
    <path id="Path_3" data-name="Path 3" d="M3595.221,2090.437l-61.594,71.86H3348.844v-71.86Z" transform="translate(-504.814 -119.286)" fill="#1d1f2d"/>
    <path id="Path_4" data-name="Path 4" d="M3576.584,2380.6H3473.928l61.594-82.126,41.063-47.906Z" transform="translate(-568.391 -183.86)" fill="#1d1f2d"/>
    <path id="Path_5" data-name="Path 5" d="M3553.171,2209.52l-20.531,23.953v-13.688h-82.126v61.594h-82.125v-71.86Z" transform="translate(-524.446 -166.77)" fill="#1d1f2d"/>
    <path id="Path_6" data-name="Path 6" d="M3478.036,1809v82.126h-328.5v153.985h-82.126V1809Z" transform="translate(-387.629 -2.1)" fill="#1d1f2d"/>
    <path id="Path_7" data-name="Path 7" d="M3312.8,2363.506l-61.594,82.126H3086.952v-82.126h41.063V2281.38h-41.063v-71.86h82.125v153.986Z" transform="translate(-407.261 -166.77)" fill="#1d1f2d"/>
    <path id="Path_8" data-name="Path 8" d="M2860.772,1844.179v215.58h-92.391Z" transform="translate(-263.119 -16.748)" fill="#a20029"/>
    <path id="Path_9" data-name="Path 9" d="M2858.344,2209.52v71.86H2735.156l30.8-71.86Z" transform="translate(-260.779 -166.77)" fill="#a20029"/>
  </g>
</svg>
